<?xml version="1.0" encoding="utf-8"?>
<!-- Generator: Adobe Illustrator 24.0.0, SVG Export Plug-In . SVG Version: 6.00 Build 0)  -->
<svg version="1.1" xmlns="http://www.w3.org/2000/svg" xmlns:xlink="http://www.w3.org/1999/xlink" x="0px" y="0px"
	 viewBox="0 0 128 128" style="enable-background:new 0 0 128 128;" xml:space="preserve">
<style type="text/css">
	.st0{fill:#0A0E12;}
	.st1{fill:#FFFFFF;}
</style>
<g id="Background">
	<rect x="-5" y="-5" class="st0" width="138" height="138"/>
</g>
<g id="Logo">
	<g>
		<path class="st1" d="M91.8,57.3c-4.1,0-7.1,2.9-7.1,7.1v0.2c0,4.2,3,7,7.1,7c4.1,0,7.1-2.8,7.1-7.1v-0.2
			C98.9,60.2,95.8,57.3,91.8,57.3 M95.6,64.6c0,2.8-1.4,4.6-3.8,4.6c-2.4,0-3.8-1.8-3.8-4.6v-0.2c0-2.9,1.5-4.6,3.8-4.6
			c2.4,0,3.8,1.7,3.8,4.6V64.6z"/>
		<path class="st1" d="M75.1,57.3c-4.1,0-7.1,2.9-7.1,7.1v7.3h3.3v-7.3c0-2.9,1.5-4.6,3.8-4.6c2.4,0,3.8,1.7,3.8,4.6v7.3h3.3v-7.3
			C82.2,60.2,79.2,57.3,75.1,57.3"/>
		<rect x="45.6" y="57.3" class="st1" width="3.3" height="14.4"/>
		<path class="st1" d="M36,57.3h-7.1v19.3h3.3v-4.9H36c4.1,0,7.1-2.8,7.1-7.1v-0.2C43.1,60.2,40.1,57.3,36,57.3 M39.8,64.6
			c0,2.8-1.4,4.6-3.8,4.6h-3.8v-9.4H36c2.4,0,3.8,1.7,3.8,4.6V64.6z"/>
		<path class="st1" d="M58.4,57.3c-4.1,0-7.1,2.9-7.1,7.1v0.2c0,4.2,3,7,7,7h0.1c1.9,0,3-0.7,3.8-1.7v1.7h3.3v-7.3
			C65.5,60.2,62.5,57.3,58.4,57.3 M62.2,67.3c-0.4,1.2-1.6,2-3.3,2h-0.5c-2.4,0-3.8-1.8-3.8-4.6v-0.2c0-2.9,1.5-4.6,3.8-4.6
			c2.4,0,3.8,1.7,3.8,4.6L62.2,67.3z"/>
		<path class="st1" d="M47.2,50.8c-1.1,0-2,0.8-2,2v0.1c0,1.2,0.8,2,2,2c1.1,0,2-0.8,2-2v-0.1C49.2,51.6,48.3,50.8,47.2,50.8"/>
	</g>
</g>
</svg>
