<svg width="100" height="100" viewBox="0 0 100 100" fill="none" xmlns="http://www.w3.org/2000/svg">
<path d="M14.8144 50.0167C14.8152 56.6242 16.6758 63.0981 20.1831 68.6979C23.6905 74.2976 28.7031 78.7972 34.6476 81.682L17.8583 35.6833C15.8451 40.1933 14.8078 45.0778 14.8144 50.0167Z" fill="url(#paint0_linear)"/>
<path d="M73.7676 48.2399C73.7676 43.8914 72.2063 40.8806 70.8686 38.5366C69.0837 35.6376 67.4105 33.1817 67.4105 30.2828C67.4105 27.0483 69.8622 24.0375 73.3203 24.0375C73.4777 24.0375 73.6227 24.0375 73.7759 24.0665C70.0191 20.6257 65.5597 18.0419 60.7063 16.4939C55.8528 14.9458 50.721 14.4705 45.6657 15.1006C40.6105 15.7307 35.7524 17.4513 31.4274 20.1435C27.1025 22.8356 23.4139 26.435 20.6167 30.6928C21.445 30.7176 22.2194 30.7342 22.8821 30.7342C26.5555 30.7135 32.2416 30.2993 32.2416 30.2993C34.1384 30.1875 34.3621 32.9747 32.4653 33.1983C32.4653 33.1983 30.5602 33.4219 28.4398 33.5338L41.2534 71.6348L48.9564 48.5215L43.4732 33.5172C41.5764 33.4054 39.7832 33.1817 39.7832 33.1817C37.8864 33.0699 38.1266 30.1709 40.0068 30.2828C40.0068 30.2828 45.8048 30.73 49.2753 30.73C52.9529 30.7135 58.6514 30.2993 58.6514 30.2993C60.5482 30.1875 60.7718 32.9747 58.8751 33.1983C58.8751 33.1983 56.9659 33.4219 54.8496 33.5338L67.5555 71.3407L71.0674 59.6164C72.5956 54.7337 73.7676 51.2507 73.7676 48.2399Z" fill="url(#paint1_linear)"/>
<path d="M50.6171 53.077L40.0607 83.7525C47.1495 85.8408 54.7157 85.6452 61.6871 83.1934C61.5896 83.0392 61.5051 82.8771 61.4345 82.7088L50.6171 53.077Z" fill="url(#paint2_linear)"/>
<path d="M80.8742 33.1362C81.0339 34.3361 81.1128 35.5453 81.1103 36.7558C81.1103 40.3257 80.4435 44.3387 78.4349 49.3581L67.6672 80.4187C75.5921 75.8057 81.4042 68.2824 83.8668 59.4496C86.3295 50.6168 85.2484 41.1717 80.8535 33.1238L80.8742 33.1362Z" fill="url(#paint3_linear)"/>
<path d="M50 9C41.891 9 33.964 11.4046 27.2216 15.9097C20.4792 20.4149 15.2241 26.8182 12.121 34.31C9.01777 41.8017 8.20583 50.0455 9.78782 57.9987C11.3698 65.9519 15.2747 73.2574 21.0086 78.9914C26.7426 84.7253 34.0481 88.6302 42.0013 90.2122C49.9545 91.7942 58.1983 90.9822 65.69 87.879C73.1818 84.7758 79.5851 79.5208 84.0903 72.7784C88.5954 66.0359 91 58.109 91 50C90.9836 39.1312 86.6587 28.7122 78.9732 21.0268C71.2878 13.3413 60.8688 9.01643 50 9ZM50 89.1529C42.2596 89.1529 34.693 86.8576 28.257 82.5572C21.8211 78.2569 16.8049 72.1446 13.8427 64.9934C10.8806 57.8422 10.1056 49.9731 11.6156 42.3814C13.1257 34.7897 16.8531 27.8163 22.3264 22.343C27.7997 16.8697 34.7732 13.1423 42.3649 11.6322C49.9566 10.1221 57.8256 10.8971 64.9768 13.8593C72.1281 16.8214 78.2403 21.8376 82.5407 28.2736C86.8411 34.7095 89.1364 42.2761 89.1364 50.0166C89.1243 60.3925 84.9972 70.3399 77.6603 77.6768C70.3234 85.0137 60.3759 89.1409 50 89.1529Z" fill="url(#paint4_linear)"/>
<defs>
<linearGradient id="paint0_linear" x1="14.8143" y1="58.6826" x2="34.6476" y2="58.6826" gradientUnits="userSpaceOnUse">
<stop stop-color="#1C2544" stop-opacity="0.05"/>
<stop offset="1" stop-color="#1C2544" stop-opacity="0.13"/>
</linearGradient>
<linearGradient id="paint1_linear" x1="20.6167" y1="43.2326" x2="73.7759" y2="43.2326" gradientUnits="userSpaceOnUse">
<stop stop-color="#1C2544" stop-opacity="0.05"/>
<stop offset="1" stop-color="#1C2544" stop-opacity="0.13"/>
</linearGradient>
<linearGradient id="paint2_linear" x1="40.0607" y1="69.1321" x2="61.6871" y2="69.1321" gradientUnits="userSpaceOnUse">
<stop stop-color="#1C2544" stop-opacity="0.05"/>
<stop offset="1" stop-color="#1C2544" stop-opacity="0.13"/>
</linearGradient>
<linearGradient id="paint3_linear" x1="67.6672" y1="56.7712" x2="85.1602" y2="56.7712" gradientUnits="userSpaceOnUse">
<stop stop-color="#1C2544" stop-opacity="0.05"/>
<stop offset="1" stop-color="#1C2544" stop-opacity="0.13"/>
</linearGradient>
<linearGradient id="paint4_linear" x1="9" y1="50" x2="91" y2="50" gradientUnits="userSpaceOnUse">
<stop stop-color="#1C2544" stop-opacity="0.05"/>
<stop offset="1" stop-color="#1C2544" stop-opacity="0.13"/>
</linearGradient>
</defs>
</svg>
