<svg width="100" height="100" viewBox="0 0 100 100" fill="none" xmlns="http://www.w3.org/2000/svg">
<path d="M78.3074 28.8132L64.4553 15H35.4669L15 35.3891V64.6109L35.428 85H64.4163L82.1984 67.2568L85 64.4554V35.5449L78.3074 28.8132Z" fill="url(#paint0_linear)"/>
<path d="M61.5917 57.1236L61.5952 57.1164L61.5986 57.1091L65.0952 49.5166C65.3676 48.9738 65.6388 48.682 65.8898 48.5206C66.137 48.3617 66.4101 48.3 66.7444 48.3C67.6271 48.3 68.4444 49.133 68.4444 50.2C68.4444 50.2809 68.4133 50.4802 68.329 50.8183C68.2489 51.1397 68.1321 51.5439 67.9873 52.0093C67.698 52.939 67.3037 54.0913 66.8857 55.2704C66.2424 57.085 65.5483 58.9491 65.1019 60.1477C64.9687 60.5054 64.8575 60.8039 64.7764 61.024C63.6331 64.0062 62.2388 66.8731 60.1044 68.9954C57.9877 71.1001 55.1154 72.5 50.9444 72.5C43.4304 72.5 38.7909 67.3166 37.3308 61.1842L37.3306 61.1831C36.3993 57.3108 36.3937 51.0277 36.6315 45.6596C36.7498 42.9867 36.9275 40.5591 37.0755 38.7997C37.1495 37.9202 37.2161 37.208 37.2641 36.716C37.2882 36.47 37.3076 36.2791 37.3209 36.1499L37.3363 36.0032L37.3402 35.9661L37.3412 35.9569L37.3415 35.9546L37.3415 35.9541C37.3415 35.954 37.3415 35.954 36.8444 35.9L37.3415 35.954L37.3444 35.9271V35.9C37.3444 35.0931 38.0033 34.5 38.7444 34.5C39.4841 34.5 40.1589 35.097 40.2444 35.8269V45.8C40.2444 46.7472 40.9402 47.5 41.8444 47.5C42.7206 47.5 43.4444 46.7761 43.4444 45.9V31.9239C43.5312 31.0686 44.1339 30.5 44.9444 30.5C45.6325 30.5 46.2645 31.0462 46.4444 31.9472V45.9C46.4444 46.8472 47.1402 47.6 48.0444 47.6C48.5162 47.6 48.9194 47.3652 49.1931 47.0572C49.4662 46.75 49.6444 46.3344 49.6444 45.9V28.9C49.6444 28.0761 50.2206 27.5 51.0444 27.5C51.8533 27.5 52.4693 28.071 52.6444 28.8523V45.8C52.6444 46.7472 53.3402 47.5 54.2444 47.5C54.7162 47.5 55.1194 47.2652 55.3931 46.9572C55.6662 46.65 55.8444 46.2344 55.8444 45.8V32C55.8444 31.1931 56.5033 30.6 57.2444 30.6C57.9222 30.6 58.5539 31.23 58.6444 32.0265V47V56.4C58.6444 58.1482 60.8649 58.577 61.5917 57.1236Z" stroke="#0A0E12"/>
<defs>
<linearGradient id="paint0_linear" x1="15" y1="50" x2="85" y2="50" gradientUnits="userSpaceOnUse">
<stop stop-color="#1C2544" stop-opacity="0.05"/>
<stop offset="1" stop-color="#1C2544" stop-opacity="0.13"/>
</linearGradient>
</defs>
</svg>
