<svg width="100" height="100" viewBox="0 0 100 100" fill="none" xmlns="http://www.w3.org/2000/svg">
<path fill-rule="evenodd" clip-rule="evenodd" d="M53.2908 21.0034C52.302 20.3461 51.1404 19.9969 49.953 20C49.1661 20.0011 48.3872 20.1571 47.6606 20.4592C46.934 20.7613 46.274 21.2035 45.7184 21.7607C45.1627 22.3178 44.7222 22.979 44.4221 23.7064C44.1219 24.4338 43.9679 25.2131 43.969 26C43.969 26.0523 43.9697 26.1045 43.971 26.1566V38.983L33.8893 32.4313C33.7129 32.2811 33.5274 32.1408 33.3334 32.0112C32.3467 31.3519 31.1867 31 30 31C28.4087 31 26.8826 31.6322 25.7574 32.7574C24.6321 33.8826 24 35.4087 24 37C24 38.1867 24.3519 39.3467 25.0112 40.3334C25.4334 40.9654 25.9697 41.5081 26.5887 41.9359L26.571 41.963L38.959 50.014L26.9849 57.8126C26.5404 58.0709 26.1272 58.3875 25.7574 58.7574C24.6321 59.8826 24 61.4087 24 63C24 64.1867 24.3519 65.3467 25.0112 66.3334C25.6705 67.3201 26.6075 68.0892 27.7039 68.5433C28.8003 68.9974 30.0067 69.1162 31.1705 68.8847C31.8645 68.7467 32.5248 68.4878 33.1228 68.1233L33.131 68.136L43.97 61.069V73.8799C43.9693 73.9199 43.9689 73.96 43.969 74C43.969 75.1874 44.3213 76.3481 44.9813 77.3351C45.6413 78.3221 46.5793 79.0912 47.6766 79.5448C48.7739 79.9985 49.9811 80.1163 51.1454 79.8835C52.3098 79.6507 53.3788 79.0777 54.2173 78.237C55.0558 77.3963 55.626 76.3257 55.8557 75.1607C55.9608 74.6275 55.9924 74.0854 55.952 73.5492V61.058L66.4244 67.8636C66.8016 68.1361 67.2111 68.3652 67.6456 68.5448C68.7429 68.9985 69.9501 69.1163 71.1144 68.8835C72.2788 68.6507 73.3478 68.0777 74.1863 67.237C75.0248 66.3963 75.595 65.3257 75.8247 64.1607C76.0544 62.9958 75.9333 61.7889 75.4767 60.6928C75.0201 59.5967 74.2486 58.6608 73.2598 58.0034C73.1351 57.9205 73.0076 57.8425 72.8777 57.7695L60.931 50.008L72.7963 42.2754C73.3047 41.9999 73.7735 41.6509 74.1863 41.237C75.0248 40.3963 75.595 39.3257 75.8247 38.1607C76.0544 36.9958 75.9333 35.7889 75.4767 34.6928C75.0201 33.5967 74.2486 32.6608 73.2598 32.0034C72.271 31.3461 71.1094 30.9969 69.922 31C69.1351 31.0011 68.3561 31.1571 67.6296 31.4592C67.2305 31.6251 66.8515 31.8333 66.4988 32.0797L55.952 38.948V26.4508C56.0227 25.5127 55.872 24.5675 55.5077 23.6928C55.0511 22.5967 54.2796 21.6608 53.2908 21.0034Z" fill="url(#paint0_linear)"/>
<path fill-rule="evenodd" clip-rule="evenodd" d="M49.953 20C51.1404 19.9969 52.302 20.3461 53.2908 21.0034C54.2796 21.6608 55.0511 22.5967 55.5077 23.6928C55.9643 24.7889 56.0854 25.9958 55.8557 27.1607C55.626 28.3257 55.0558 29.3963 54.2173 30.237C53.3788 31.0777 52.3098 31.6507 51.1454 31.8835C49.9811 32.1163 48.7739 31.9985 47.6766 31.5448C46.5793 31.0912 45.6413 30.3221 44.9813 29.3351C44.3213 28.3481 43.969 27.1874 43.969 26C43.9679 25.2131 44.1219 24.4338 44.4221 23.7064C44.7222 22.979 45.1627 22.3178 45.7184 21.7607C46.274 21.2035 46.934 20.7613 47.6606 20.4592C48.3872 20.1571 49.1661 20.0011 49.953 20ZM49.953 68C51.1404 67.9969 52.302 68.3461 53.2908 69.0034C54.2796 69.6608 55.0511 70.5967 55.5077 71.6928C55.9643 72.7889 56.0854 73.9958 55.8557 75.1607C55.626 76.3257 55.0558 77.3963 54.2173 78.237C53.3788 79.0777 52.3098 79.6507 51.1454 79.8835C49.9811 80.1163 48.7739 79.9985 47.6766 79.5448C46.5793 79.0912 45.6413 78.3221 44.9813 77.3351C44.3213 76.3481 43.969 75.1874 43.969 74C43.9679 73.2131 44.1219 72.4338 44.4221 71.7064C44.7222 70.979 45.1627 70.3178 45.7184 69.7607C46.274 69.2035 46.934 68.7613 47.6606 68.4592C48.3872 68.1571 49.1661 68.0011 49.953 68ZM30 31C31.1867 31 32.3467 31.3519 33.3334 32.0112C34.3201 32.6705 35.0892 33.6076 35.5433 34.7039C35.9974 35.8003 36.1162 37.0067 35.8847 38.1706C35.6532 39.3344 35.0818 40.4035 34.2426 41.2427C33.4035 42.0818 32.3344 42.6532 31.1705 42.8847C30.0067 43.1162 28.8003 42.9974 27.7039 42.5433C26.6075 42.0892 25.6705 41.3201 25.0112 40.3334C24.3519 39.3467 24 38.1867 24 37C24 35.4087 24.6321 33.8826 25.7574 32.7574C26.8826 31.6322 28.4087 31 30 31ZM30 57C31.1867 57 32.3467 57.3519 33.3334 58.0112C34.3201 58.6705 35.0892 59.6076 35.5433 60.7039C35.9974 61.8003 36.1162 63.0067 35.8847 64.1706C35.6532 65.3345 35.0818 66.4035 34.2426 67.2427C33.4035 68.0818 32.3344 68.6532 31.1705 68.8847C30.0067 69.1162 28.8003 68.9974 27.7039 68.5433C26.6075 68.0892 25.6705 67.3201 25.0112 66.3334C24.3519 65.3467 24 64.1867 24 63C24 61.4087 24.6321 59.8826 25.7574 58.7574C26.8826 57.6322 28.4087 57 30 57ZM69.922 31C71.1094 30.9969 72.271 31.3461 73.2598 32.0034C74.2486 32.6608 75.0201 33.5967 75.4767 34.6928C75.9333 35.7889 76.0544 36.9958 75.8247 38.1607C75.595 39.3257 75.0248 40.3963 74.1863 41.237C73.3478 42.0777 72.2788 42.6507 71.1144 42.8835C69.9501 43.1163 68.7429 42.9985 67.6456 42.5448C66.5483 42.0912 65.6103 41.3221 64.9503 40.3351C64.2903 39.3481 63.938 38.1874 63.938 37C63.9369 36.2131 64.0909 35.4338 64.391 34.7064C64.6912 33.979 65.1317 33.3178 65.6874 32.7607C66.243 32.2035 66.903 31.7613 67.6296 31.4592C68.3561 31.1571 69.1351 31.0011 69.922 31ZM69.922 57C71.1094 56.9969 72.271 57.3461 73.2598 58.0034C74.2486 58.6608 75.0201 59.5967 75.4767 60.6928C75.9333 61.7889 76.0544 62.9958 75.8247 64.1607C75.595 65.3257 75.0248 66.3963 74.1863 67.237C73.3478 68.0777 72.2788 68.6507 71.1144 68.8835C69.9501 69.1163 68.7429 68.9985 67.6456 68.5448C66.5483 68.0912 65.6103 67.3221 64.9503 66.3351C64.2903 65.3481 63.938 64.1874 63.938 63C63.9369 62.2131 64.0909 61.4338 64.391 60.7064C64.6912 59.979 65.1317 59.3178 65.6874 58.7607C66.243 58.2035 66.903 57.7613 67.6296 57.4592C68.3561 57.1571 69.1351 57.0011 69.922 57ZM49.953 44C51.1404 43.9969 52.302 44.3461 53.2908 45.0034C54.2796 45.6608 55.0511 46.5967 55.5077 47.6928C55.9643 48.7889 56.0854 49.9958 55.8557 51.1607C55.626 52.3257 55.0558 53.3963 54.2173 54.237C53.3788 55.0777 52.3098 55.6507 51.1454 55.8835C49.9811 56.1163 48.7739 55.9985 47.6766 55.5448C46.5793 55.0912 45.6413 54.3221 44.9813 53.3351C44.3213 52.3481 43.969 51.1874 43.969 50C43.9679 49.2131 44.1219 48.4338 44.4221 47.7064C44.7222 46.979 45.1627 46.3178 45.7184 45.7607C46.274 45.2035 46.934 44.7613 47.6606 44.4592C48.3872 44.1571 49.1661 44.0011 49.953 44Z" fill="url(#paint1_linear)"/>
<defs>
<linearGradient id="paint0_linear" x1="24" y1="50" x2="75.938" y2="50" gradientUnits="userSpaceOnUse">
<stop stop-color="#1C2544" stop-opacity="0.05"/>
<stop offset="1" stop-color="#1C2544" stop-opacity="0.13"/>
</linearGradient>
<linearGradient id="paint1_linear" x1="24" y1="50" x2="75.938" y2="50" gradientUnits="userSpaceOnUse">
<stop stop-color="#1C2544" stop-opacity="0.15"/>
<stop offset="1" stop-color="#1C2544" stop-opacity="0.2"/>
<stop offset="1" stop-color="#1C2544" stop-opacity="0.2"/>
</linearGradient>
</defs>
</svg>
