<svg width="100" height="36" viewBox="0 0 100 36" fill="none" xmlns="http://www.w3.org/2000/svg">
<path d="M92.9808 19.2483C92.9808 23.1966 90.9882 25.6689 87.6708 25.6689C84.276 25.6689 82.3203 23.1966 82.3203 19.2483V18.9531C82.3203 14.9679 84.3498 12.5703 87.6708 12.5703C90.9918 12.5703 92.9808 15.0048 92.9808 18.99V19.2483ZM87.6708 9.0648C81.9891 9.0648 77.7456 13.05 77.7456 19.0278V19.323C77.7456 25.1892 81.9513 29.1375 87.6339 29.1375C93.3165 29.1375 97.56 25.2261 97.56 19.2123V18.9162C97.56 13.0122 93.3165 9.0648 87.6717 9.0648" fill="#101820"/>
<path d="M64.4229 9.0648C58.7412 9.0648 54.4977 13.05 54.4977 19.0278V29.1375H59.0724V18.9531C59.0724 14.9679 61.1019 12.5703 64.4229 12.5703C67.7439 12.5703 69.7329 15.0048 69.7329 18.99V29.1375H74.3085V18.9162C74.3085 13.0122 70.065 9.0648 64.4202 9.0648" fill="#101820"/>
<path d="M27.8208 9.0657H23.2452V29.1366H27.8208V9.0657Z" fill="#101820"/>
<path d="M15.2388 19.2483C15.2388 23.1966 13.2462 25.6689 9.9288 25.6689H4.5756V12.5712H9.9252C13.2462 12.5712 15.2352 15.0057 15.2352 18.9909L15.2388 19.2483ZM9.9288 9.0648H0V36H4.5756V29.1375H9.8856C15.5673 29.1375 19.8108 25.2261 19.8108 19.2132V18.9171C19.8108 13.0131 15.5673 9.0657 9.9225 9.0657" fill="#101820"/>
<path d="M46.4841 22.95C45.9495 24.6843 44.19 25.6689 41.94 25.6689H41.1759C37.782 25.6689 35.8263 23.1966 35.8263 19.2483V18.9531C35.8263 14.9679 37.8558 12.5703 41.1768 12.5703C44.4978 12.5703 46.4868 15.0048 46.4868 18.99L46.4841 22.95ZM41.1741 9.0648C35.4915 9.0648 31.2489 13.05 31.2489 19.0278V19.323C31.2489 25.1235 35.361 29.043 40.9446 29.133H41.1372C43.7193 29.0754 45.3015 28.1565 46.4805 26.7336V29.1393H51.066V18.9162C51.066 13.0122 46.8225 9.0648 41.1777 9.0648" fill="#101820"/>
<path d="M25.5384 0C23.9436 0 22.7484 1.1178 22.7484 2.7954V2.88C22.7484 4.527 23.9292 5.6349 25.5231 5.6349C27.117 5.6349 28.3131 4.5369 28.3131 2.8449V2.7612C28.3131 1.1088 27.1224 0 25.5384 0Z" fill="#101820"/>
<path d="M97.5997 9.243H97.9363V10.2753H98.1631V9.243H98.5006V9.0648H97.5997V9.243Z" fill="#101820"/>
<path d="M99.6957 9.0648L99.3852 9.891L99.0675 9.0648H98.7651V10.2753H98.9685V9.3609L99.3357 10.2753H99.4095L99.7686 9.3609V10.2753H99.9936V9.0648H99.6957Z" fill="#101820"/>
</svg>
