<svg width="30" height="30" viewBox="0 0 30 30" fill="none" xmlns="http://www.w3.org/2000/svg">
<g clip-path="url(#clip0)">
<mask id="mask0" mask-type="alpha" maskUnits="userSpaceOnUse" x="-2" y="-2" width="34" height="34">
<path fill-rule="evenodd" clip-rule="evenodd" d="M21.364 8.63606C17.8492 5.12134 12.1508 5.12134 8.63604 8.63606C5.12132 12.1508 5.12132 17.8493 8.63604 21.364C12.1508 24.8787 17.8492 24.8787 21.364 21.364C24.8787 17.8493 24.8787 12.1508 21.364 8.63606ZM23.4853 6.51474C18.799 1.82845 11.201 1.82845 6.51472 6.51474C1.82843 11.201 1.82843 18.799 6.51472 23.4853C11.201 28.1716 18.799 28.1716 23.4853 23.4853C28.1716 18.799 28.1716 11.201 23.4853 6.51474Z" fill="black"/>
</mask>
<g mask="url(#mask0)">
<path d="M14.9999 15L5.34375 24.6562L2.92971 22.2421L14.9999 15Z" fill="url(#paint0_linear)"/>
<path d="M14.9999 15L24.6561 5.34381L27.0702 7.75786L14.9999 15Z" fill="url(#paint1_linear)"/>
<path d="M15 15L1.9408 18.9926L0.942646 15.7278L15 15Z" fill="url(#paint2_linear)"/>
<path d="M15 15L28.0592 11.0074L29.0574 14.2722L15 15Z" fill="url(#paint3_linear)"/>
<path d="M15 14.9999L1.36279 15.7146L1.18412 12.3053L15 14.9999Z" fill="url(#paint4_linear)"/>
<path d="M15 14.9999L28.6372 14.2852L28.8159 17.6945L15 14.9999Z" fill="url(#paint5_linear)"/>
<path d="M15 14.9999L1.59497 12.3942L2.24639 9.04298L15 14.9999Z" fill="url(#paint6_linear)"/>
<path d="M15 15L28.405 17.6057L27.7536 20.9569L15 15Z" fill="url(#paint7_linear)"/>
<path d="M15.0001 15L2.62366 9.22876L4.06647 6.13465L15.0001 15Z" fill="url(#paint8_linear)"/>
<path d="M15.0001 15L27.3766 20.7712L25.9338 23.8654L15.0001 15Z" fill="url(#paint9_linear)"/>
<path d="M14.9999 15L3.29456 22.0333L1.53623 19.1069L14.9999 15Z" fill="url(#paint10_linear)"/>
<path d="M15.0001 15L26.7054 7.96667L28.4638 10.893L15.0001 15Z" fill="url(#paint11_linear)"/>
<path d="M15 14.9999L4.38733 6.40594L6.53581 3.75279L15 14.9999Z" fill="url(#paint12_linear)"/>
<path d="M15 14.9999L25.6127 23.5938L23.4642 26.247L15 14.9999Z" fill="url(#paint13_linear)"/>
<path d="M15.0001 14.9998L6.78174 4.09375L9.50826 2.03917L15.0001 14.9998Z" fill="url(#paint14_linear)"/>
<path d="M15.0001 14.9999L23.2184 25.9059L20.4919 27.9605L15.0001 14.9999Z" fill="url(#paint15_linear)"/>
<path d="M15.0001 14.9999L9.66431 2.42957L12.8069 1.09562L15.0001 14.9999Z" fill="url(#paint16_linear)"/>
<path d="M15.0002 14.9999L20.3359 27.5703L17.1934 28.9042L15.0002 14.9999Z" fill="url(#paint17_linear)"/>
<path d="M15 14.9999L12.8638 1.51215L16.2357 0.978083L15 14.9999Z" fill="url(#paint18_linear)"/>
<path d="M15.0001 15L17.1364 28.4878L13.7644 29.0219L15.0001 15Z" fill="url(#paint19_linear)"/>
<path d="M14.9999 14.9997L16.1901 1.39581L19.591 1.69336L14.9999 14.9997Z" fill="url(#paint20_linear)"/>
<path d="M14.9998 14.9998L13.8096 28.6037L10.4086 28.3062L14.9998 14.9998Z" fill="url(#paint21_linear)"/>
<path d="M15.0001 15L19.446 2.08813L22.674 3.19962L15.0001 15Z" fill="url(#paint22_linear)"/>
<path d="M15.0001 15L10.5542 27.9119L7.32622 26.8004L15.0001 15Z" fill="url(#paint23_linear)"/>
<path d="M15.0005 15.0001L22.438 3.54734L25.0585 4.94154L15.0005 15.0001Z" fill="url(#paint24_linear)"/>
<path d="M15.0005 15.0001L7.56293 26.4529L4.9415 25.0585L15.0005 15.0001Z" fill="url(#paint25_linear)"/>
</g>
</g>
<defs>
<linearGradient id="paint0_linear" x1="6.51464" y1="23.4853" x2="4.38503" y2="21.3557" gradientUnits="userSpaceOnUse">
<stop stop-color="#0A0E12"/>
<stop offset="1" stop-color="#0A0E12" stop-opacity="0.962"/>
</linearGradient>
<linearGradient id="paint1_linear" x1="23.4852" y1="6.5147" x2="25.6148" y2="8.6443" gradientUnits="userSpaceOnUse">
<stop stop-color="#0A0E12" stop-opacity="0.506"/>
<stop offset="1" stop-color="#0A0E12" stop-opacity="0.468"/>
</linearGradient>
<linearGradient id="paint2_linear" x1="3.52433" y1="18.5085" x2="2.64378" y2="15.6284" gradientUnits="userSpaceOnUse">
<stop stop-color="#0A0E12" stop-opacity="0.924"/>
<stop offset="1" stop-color="#0A0E12" stop-opacity="0.886"/>
</linearGradient>
<linearGradient id="paint3_linear" x1="26.4757" y1="11.4915" x2="27.3562" y2="14.3716" gradientUnits="userSpaceOnUse">
<stop stop-color="#0A0E12" stop-opacity="0.43"/>
<stop offset="1" stop-color="#0A0E12" stop-opacity="0.392"/>
</linearGradient>
<linearGradient id="paint4_linear" x1="3.01641" y1="15.6279" x2="2.85879" y2="12.6203" gradientUnits="userSpaceOnUse">
<stop stop-color="#0A0E12" stop-opacity="0.886"/>
<stop offset="1" stop-color="#0A0E12" stop-opacity="0.848"/>
</linearGradient>
<linearGradient id="paint5_linear" x1="26.9836" y1="14.3719" x2="27.1412" y2="17.3795" gradientUnits="userSpaceOnUse">
<stop stop-color="#0A0E12" stop-opacity="0.392"/>
<stop offset="1" stop-color="#0A0E12" stop-opacity="0.354"/>
</linearGradient>
<linearGradient id="paint6_linear" x1="3.22043" y1="12.7102" x2="3.79509" y2="9.7538" gradientUnits="userSpaceOnUse">
<stop stop-color="#0A0E12" stop-opacity="0.848"/>
<stop offset="1" stop-color="#0A0E12" stop-opacity="0.81"/>
</linearGradient>
<linearGradient id="paint7_linear" x1="26.7796" y1="17.2897" x2="26.2049" y2="20.2461" gradientUnits="userSpaceOnUse">
<stop stop-color="#0A0E12" stop-opacity="0.354"/>
<stop offset="1" stop-color="#0A0E12" stop-opacity="0.316"/>
</linearGradient>
<linearGradient id="paint8_linear" x1="4.1244" y1="9.92857" x2="5.3972" y2="7.19902" gradientUnits="userSpaceOnUse">
<stop stop-color="#0A0E12" stop-opacity="0.81"/>
<stop offset="1" stop-color="#0A0E12" stop-opacity="0.772"/>
</linearGradient>
<linearGradient id="paint9_linear" x1="25.8758" y1="20.0714" x2="24.603" y2="22.801" gradientUnits="userSpaceOnUse">
<stop stop-color="#0A0E12" stop-opacity="0.316"/>
<stop offset="1" stop-color="#0A0E12" stop-opacity="0.278"/>
</linearGradient>
<linearGradient id="paint10_linear" x1="4.71392" y1="21.1804" x2="3.16278" y2="18.5989" gradientUnits="userSpaceOnUse">
<stop stop-color="#0A0E12" stop-opacity="0.962"/>
<stop offset="1" stop-color="#0A0E12" stop-opacity="0.924"/>
</linearGradient>
<linearGradient id="paint11_linear" x1="25.2861" y1="8.81952" x2="26.8372" y2="11.4011" gradientUnits="userSpaceOnUse">
<stop stop-color="#0A0E12" stop-opacity="0.468"/>
<stop offset="1" stop-color="#0A0E12" stop-opacity="0.43"/>
</linearGradient>
<linearGradient id="paint12_linear" x1="5.67419" y1="7.44803" x2="7.56953" y2="5.10748" gradientUnits="userSpaceOnUse">
<stop stop-color="#0A0E12" stop-opacity="0.772"/>
<stop offset="1" stop-color="#0A0E12" stop-opacity="0.734"/>
</linearGradient>
<linearGradient id="paint13_linear" x1="24.3258" y1="22.5517" x2="22.4305" y2="24.8923" gradientUnits="userSpaceOnUse">
<stop stop-color="#0A0E12" stop-opacity="0.278"/>
<stop offset="1" stop-color="#0A0E12" stop-opacity="0.24"/>
</linearGradient>
<linearGradient id="paint14_linear" x1="7.77827" y1="5.4162" x2="10.1835" y2="3.6037" gradientUnits="userSpaceOnUse">
<stop stop-color="#0A0E12" stop-opacity="0.734"/>
<stop offset="1" stop-color="#0A0E12" stop-opacity="0.696"/>
</linearGradient>
<linearGradient id="paint15_linear" x1="22.2218" y1="24.5835" x2="19.8166" y2="26.396" gradientUnits="userSpaceOnUse">
<stop stop-color="#0A0E12" stop-opacity="0.24"/>
<stop offset="1" stop-color="#0A0E12" stop-opacity="0.202"/>
</linearGradient>
<linearGradient id="paint16_linear" x1="10.3113" y1="3.95381" x2="13.0836" y2="2.77704" gradientUnits="userSpaceOnUse">
<stop stop-color="#0A0E12" stop-opacity="0.696"/>
<stop offset="1" stop-color="#0A0E12" stop-opacity="0.658"/>
</linearGradient>
<linearGradient id="paint17_linear" x1="19.6889" y1="26.046" x2="16.9166" y2="27.2228" gradientUnits="userSpaceOnUse">
<stop stop-color="#0A0E12" stop-opacity="0.202"/>
<stop offset="1" stop-color="#0A0E12" stop-opacity="0.164"/>
</linearGradient>
<linearGradient id="paint18_linear" x1="13.1228" y1="3.14764" x2="16.0974" y2="2.67651" gradientUnits="userSpaceOnUse">
<stop stop-color="#0A0E12" stop-opacity="0.658"/>
<stop offset="1" stop-color="#0A0E12" stop-opacity="0.62"/>
</linearGradient>
<linearGradient id="paint19_linear" x1="16.8773" y1="26.8523" x2="13.9027" y2="27.3234" gradientUnits="userSpaceOnUse">
<stop stop-color="#0A0E12" stop-opacity="0.164"/>
<stop offset="1" stop-color="#0A0E12" stop-opacity="0.126"/>
</linearGradient>
<linearGradient id="paint20_linear" x1="16.0457" y1="3.0454" x2="19.046" y2="3.30788" gradientUnits="userSpaceOnUse">
<stop stop-color="#0A0E12" stop-opacity="0.62"/>
<stop offset="1" stop-color="#0A0E12" stop-opacity="0.58"/>
</linearGradient>
<linearGradient id="paint21_linear" x1="13.9539" y1="26.9541" x2="10.9536" y2="26.6916" gradientUnits="userSpaceOnUse">
<stop stop-color="#0A0E12" stop-opacity="0.126"/>
<stop offset="1" stop-color="#0A0E12" stop-opacity="0.088"/>
</linearGradient>
<linearGradient id="paint22_linear" x1="18.9069" y1="3.6538" x2="21.7546" y2="4.63432" gradientUnits="userSpaceOnUse">
<stop stop-color="#0A0E12" stop-opacity="0.58"/>
<stop offset="1" stop-color="#0A0E12" stop-opacity="0.544"/>
</linearGradient>
<linearGradient id="paint23_linear" x1="11.0933" y1="26.3462" x2="8.24567" y2="25.3657" gradientUnits="userSpaceOnUse">
<stop stop-color="#0A0E12" stop-opacity="0.088"/>
<stop offset="1" stop-color="#0A0E12" stop-opacity="0.05"/>
</linearGradient>
<linearGradient id="paint24_linear" x1="21.6596" y1="4.74597" x2="23.8474" y2="6.16675" gradientUnits="userSpaceOnUse">
<stop stop-color="#0A0E12" stop-opacity="0.544"/>
<stop offset="1" stop-color="#0A0E12" stop-opacity="0.506"/>
</linearGradient>
<linearGradient id="paint25_linear" x1="8.34116" y1="25.2545" x2="6.15271" y2="23.8333" gradientUnits="userSpaceOnUse">
<stop stop-color="#0A0E12" stop-opacity="0.05"/>
<stop offset="1" stop-color="#0A0E12" stop-opacity="0.012"/>
</linearGradient>
<clipPath id="clip0">
<rect width="30" height="30" fill="white"/>
</clipPath>
</defs>
</svg>
